<svg width="2592" height="822" viewBox="0 0 2592 822" fill="none" xmlns="http://www.w3.org/2000/svg">
<path d="M1062.1 602.912C1062.1 570.187 1068.87 541.08 1082.4 515.592C1096.25 489.789 1115.75 469.808 1140.93 455.648C1166.1 441.173 1195.05 433.936 1227.78 433.936C1269.31 433.936 1304.24 445.107 1332.56 467.448C1360.88 489.475 1379.13 519.525 1387.31 557.6H1287.72C1281.74 545.013 1273.4 535.416 1262.7 528.808C1252.32 522.2 1240.21 518.896 1226.36 518.896C1204.96 518.896 1187.81 526.605 1174.91 542.024C1162.33 557.128 1156.03 577.424 1156.03 602.912C1156.03 628.715 1162.33 649.325 1174.91 664.744C1187.81 679.848 1204.96 687.4 1226.36 687.4C1240.21 687.4 1252.32 684.096 1262.7 677.488C1273.4 670.88 1281.74 661.283 1287.72 648.696H1387.31C1379.13 686.771 1360.88 716.979 1332.56 739.32C1304.24 761.347 1269.31 772.36 1227.78 772.36C1195.05 772.36 1166.1 765.28 1140.93 751.12C1115.75 736.645 1096.25 716.664 1082.4 691.176C1068.87 665.373 1062.1 635.952 1062.1 602.912ZM1599.62 770L1533.54 647.28H1523.63V770H1431.12V437.24H1576.97C1603.71 437.24 1626.37 441.96 1644.94 451.4C1663.5 460.525 1677.5 473.269 1686.94 489.632C1696.38 505.68 1701.1 523.773 1701.1 543.912C1701.1 566.568 1694.81 586.549 1682.22 603.856C1669.95 620.848 1651.86 632.963 1627.94 640.2L1702.99 770H1599.62ZM1523.63 584.032H1569.42C1582 584.032 1591.44 581.043 1597.74 575.064C1604.03 569.085 1607.18 560.432 1607.18 549.104C1607.18 538.405 1603.87 530.067 1597.26 524.088C1590.97 517.795 1581.69 514.648 1569.42 514.648H1523.63V584.032ZM2131.63 437.24V770H2039.12V586.392L1976.34 770H1898.93L1835.69 584.976V770H1743.17V437.24H1855.04L1938.58 653.416L2020.24 437.24H2131.63Z" fill="black"/>
<path d="M1123.16 167.32V245.72C1123.16 256.6 1120.01 265.08 1113.72 271.16C1107.43 277.133 1099 280.12 1088.44 280.12C1077.77 280.12 1069.13 277.027 1062.52 270.84C1056.01 264.653 1052.76 256.013 1052.76 244.92H1075.16C1075.27 249.72 1076.39 253.453 1078.52 256.12C1080.76 258.787 1083.96 260.12 1088.12 260.12C1092.17 260.12 1095.27 258.84 1097.4 256.28C1099.53 253.72 1100.6 250.2 1100.6 245.72V167.32H1123.16ZM1299.05 223C1299.05 212.013 1301.5 202.2 1306.41 193.56C1311.42 184.813 1318.2 178.04 1326.73 173.24C1335.37 168.333 1345.02 165.88 1355.69 165.88C1368.17 165.88 1379.1 169.08 1388.49 175.48C1397.88 181.88 1404.44 190.733 1408.17 202.04H1382.41C1379.85 196.707 1376.22 192.707 1371.53 190.04C1366.94 187.373 1361.61 186.04 1355.53 186.04C1349.02 186.04 1343.21 187.587 1338.09 190.68C1333.08 193.667 1329.13 197.933 1326.25 203.48C1323.48 209.027 1322.09 215.533 1322.09 223C1322.09 230.36 1323.48 236.867 1326.25 242.52C1329.13 248.067 1333.08 252.387 1338.09 255.48C1343.21 258.467 1349.02 259.96 1355.53 259.96C1361.61 259.96 1366.94 258.627 1371.53 255.96C1376.22 253.187 1379.85 249.133 1382.41 243.8H1408.17C1404.44 255.213 1397.88 264.12 1388.49 270.52C1379.21 276.813 1368.28 279.96 1355.69 279.96C1345.02 279.96 1335.37 277.56 1326.73 272.76C1318.2 267.853 1311.42 261.08 1306.41 252.44C1301.5 243.8 1299.05 233.987 1299.05 223ZM1634.34 280.12C1623.89 280.12 1614.29 277.667 1605.54 272.76C1596.8 267.853 1589.86 261.08 1584.74 252.44C1579.62 243.693 1577.06 233.827 1577.06 222.84C1577.06 211.96 1579.62 202.2 1584.74 193.56C1589.86 184.813 1596.8 177.987 1605.54 173.08C1614.29 168.173 1623.89 165.72 1634.34 165.72C1644.9 165.72 1654.5 168.173 1663.14 173.08C1671.89 177.987 1678.77 184.813 1683.78 193.56C1688.9 202.2 1691.46 211.96 1691.46 222.84C1691.46 233.827 1688.9 243.693 1683.78 252.44C1678.77 261.08 1671.89 267.853 1663.14 272.76C1654.4 277.667 1644.8 280.12 1634.34 280.12ZM1634.34 260.12C1641.06 260.12 1646.98 258.627 1652.1 255.64C1657.22 252.547 1661.22 248.173 1664.1 242.52C1666.98 236.867 1668.42 230.307 1668.42 222.84C1668.42 215.373 1666.98 208.867 1664.1 203.32C1661.22 197.667 1657.22 193.347 1652.1 190.36C1646.98 187.373 1641.06 185.88 1634.34 185.88C1627.62 185.88 1621.65 187.373 1616.42 190.36C1611.3 193.347 1607.3 197.667 1604.42 203.32C1601.54 208.867 1600.1 215.373 1600.1 222.84C1600.1 230.307 1601.54 236.867 1604.42 242.52C1607.3 248.173 1611.3 252.547 1616.42 255.64C1621.65 258.627 1627.62 260.12 1634.34 260.12ZM1920.93 279L1896.29 235.48H1885.73V279H1863.33V167.32H1905.25C1913.89 167.32 1921.25 168.867 1927.33 171.96C1933.41 174.947 1937.94 179.053 1940.93 184.28C1944.02 189.4 1945.57 195.16 1945.57 201.56C1945.57 208.92 1943.43 215.587 1939.17 221.56C1934.9 227.427 1928.55 231.48 1920.13 233.72L1946.85 279H1920.93ZM1885.73 218.68H1904.45C1910.53 218.68 1915.06 217.24 1918.05 214.36C1921.03 211.373 1922.53 207.267 1922.53 202.04C1922.53 196.92 1921.03 192.973 1918.05 190.2C1915.06 187.32 1910.53 185.88 1904.45 185.88H1885.73V218.68ZM2143.43 185.4V213.4H2181.03V231.16H2143.43V260.76H2185.83V279H2121.03V167.16H2185.83V185.4H2143.43Z" fill="black"/>
<path d="M383 581.434C383 526.518 427.518 482 482.434 482V482C615.295 482 723 589.705 723 722.566V722.566C723 777.482 678.482 822 623.566 822H399C390.163 822 383 814.837 383 806V581.434Z" fill="#FF0407"/>
<path d="M29 99.434C29 44.5181 73.5181 0 128.434 0H353C361.837 0 369 7.16344 369 16V240.566C369 295.482 324.482 340 269.566 340V340C136.705 340 29 232.295 29 99.434V99.434Z" fill="#03BF09"/>
<path d="M0 399C0 390.163 7.16344 383 16 383H240.566C295.482 383 340 427.518 340 482.434V482.434C340 615.295 232.295 723 99.434 723V723C44.5181 723 0 678.482 0 623.566V399Z" fill="#FFCD07"/>
<path d="M412 339.566C412 206.705 519.705 99 652.566 99V99C707.482 99 752 143.518 752 198.434V423C752 431.837 744.837 439 736 439H511.434C456.518 439 412 394.482 412 339.566V339.566Z" fill="#25058E"/>
</svg>
